<svg width="15" height="15" viewBox="0 0 15 15" fill="none" xmlns="http://www.w3.org/2000/svg">
<path d="M7.97998 3.40625C9.94873 3.40625 11.5737 5.03125 11.5737 7C11.5737 9 9.94873 10.5938 7.97998 10.5938C5.97998 10.5938 4.38623 9 4.38623 7C4.38623 5.03125 5.97998 3.40625 7.97998 3.40625ZM7.97998 9.34375C9.26123 9.34375 10.2925 8.3125 10.2925 7C10.2925 5.71875 9.26123 4.6875 7.97998 4.6875C6.66748 4.6875 5.63623 5.71875 5.63623 7C5.63623 8.3125 6.69873 9.34375 7.97998 9.34375ZM12.5425 3.28125C12.5425 3.75 12.1675 4.125 11.6987 4.125C11.23 4.125 10.855 3.75 10.855 3.28125C10.855 2.8125 11.23 2.4375 11.6987 2.4375C12.1675 2.4375 12.5425 2.8125 12.5425 3.28125ZM14.9175 4.125C14.98 5.28125 14.98 8.75 14.9175 9.90625C14.855 11.0312 14.605 12 13.7925 12.8438C12.98 13.6562 11.98 13.9062 10.855 13.9688C9.69873 14.0312 6.22998 14.0312 5.07373 13.9688C3.94873 13.9062 2.97998 13.6562 2.13623 12.8438C1.32373 12 1.07373 11.0312 1.01123 9.90625C0.94873 8.75 0.94873 5.28125 1.01123 4.125C1.07373 3 1.32373 2 2.13623 1.1875C2.97998 0.375 3.94873 0.125 5.07373 0.0625C6.22998 0 9.69873 0 10.855 0.0625C11.98 0.125 12.98 0.375 13.7925 1.1875C14.605 2 14.855 3 14.9175 4.125ZM13.4175 11.125C13.7925 10.2188 13.6987 8.03125 13.6987 7C13.6987 6 13.7925 3.8125 13.4175 2.875C13.1675 2.28125 12.6987 1.78125 12.105 1.5625C11.1675 1.1875 8.97998 1.28125 7.97998 1.28125C6.94873 1.28125 4.76123 1.1875 3.85498 1.5625C3.22998 1.8125 2.76123 2.28125 2.51123 2.875C2.13623 3.8125 2.22998 6 2.22998 7C2.22998 8.03125 2.13623 10.2188 2.51123 11.125C2.76123 11.75 3.22998 12.2188 3.85498 12.4688C4.76123 12.8438 6.94873 12.75 7.97998 12.75C8.97998 12.75 11.1675 12.8438 12.105 12.4688C12.6987 12.2188 13.1987 11.75 13.4175 11.125Z" fill="#D1D1D1"/>
</svg>
