<svg width="15" height="14" viewBox="0 0 15 14" fill="none" xmlns="http://www.w3.org/2000/svg">
<path d="M3.94501 14H1.03876V4.65625H3.94501V14ZM2.47626 3.40625C1.57001 3.40625 0.820007 2.625 0.820007 1.6875C0.820007 0.78125 1.57001 0.03125 2.47626 0.03125C3.41376 0.03125 4.16376 0.78125 4.16376 1.6875C4.16376 2.625 3.41376 3.40625 2.47626 3.40625ZM14.7888 14H11.9138V9.46875C11.9138 8.375 11.8825 7 10.3825 7C8.88251 7 8.66376 8.15625 8.66376 9.375V14H5.75751V4.65625H8.53876V5.9375H8.57001C8.97626 5.21875 9.91376 4.4375 11.32 4.4375C14.2575 4.4375 14.82 6.375 14.82 8.875V14H14.7888Z" fill="#D1D1D1"/>
</svg>
