<svg width="17" height="14" viewBox="0 0 17 14" fill="none" xmlns="http://www.w3.org/2000/svg">
<path d="M15.0037 3.75C15.0037 3.90625 15.0037 4.03125 15.0037 4.1875C15.0037 8.53125 11.7225 13.5 5.69122 13.5C3.81622 13.5 2.09747 12.9688 0.659973 12.0312C0.909973 12.0625 1.15997 12.0938 1.44122 12.0938C2.97247 12.0938 4.37872 11.5625 5.50372 10.6875C4.06622 10.6562 2.84747 9.71875 2.44122 8.40625C2.65997 8.4375 2.84747 8.46875 3.06622 8.46875C3.34747 8.46875 3.65997 8.40625 3.90997 8.34375C2.40997 8.03125 1.28497 6.71875 1.28497 5.125V5.09375C1.72247 5.34375 2.25372 5.46875 2.78497 5.5C1.87872 4.90625 1.31622 3.90625 1.31622 2.78125C1.31622 2.15625 1.47247 1.59375 1.75372 1.125C3.37872 3.09375 5.81622 4.40625 8.53497 4.5625C8.47247 4.3125 8.44122 4.0625 8.44122 3.8125C8.44122 2 9.90997 0.53125 11.7225 0.53125C12.66 0.53125 13.5037 0.90625 14.1287 1.5625C14.8475 1.40625 15.5662 1.125 16.1912 0.75C15.9412 1.53125 15.4412 2.15625 14.7537 2.5625C15.41 2.5 16.0662 2.3125 16.6287 2.0625C16.1912 2.71875 15.6287 3.28125 15.0037 3.75Z" fill="#D1D1D1"/>
</svg>
